<?xml version="1.0" encoding="UTF-8"?>
<svg version="1.1" xmlns="http://www.w3.org/2000/svg" width="269" height="184">
<path d="M0 0 C88.77 0 177.54 0 269 0 C269 60.72 269 121.44 269 184 C180.23 184 91.46 184 0 184 C0 123.28 0 62.56 0 0 Z " fill="#FDFDFC" transform="translate(0,0)"/>
<path d="M0 0 C2.8427875 2.29462668 2.97476417 2.85110861 3.625 6.6875 C3.49093661 11.5227197 0.90217446 14.01638064 -2.37109375 17.3359375 C-4.08713028 18.91919221 -4.08713028 18.91919221 -5 21 C-4.20335938 21.34611328 -4.20335938 21.34611328 -3.390625 21.69921875 C1.93538125 24.1581231 5.30322967 26.60645934 8 32 C8.83018732 37.71643271 8.25381942 42.38962489 4.75952148 47.0847168 C-0.3395309 52.63516303 -6.89037594 54.30207512 -14.21484375 54.62890625 C-16.78915465 54.63284853 -19.36362871 54.61023596 -21.9375 54.5625 C-23.90686523 54.57893555 -23.90686523 54.57893555 -25.91601562 54.59570312 C-33.12030841 54.54014303 -33.12030841 54.54014303 -36 54 C-38.11677033 51.84142098 -38.93937284 50.53065576 -39.28483582 47.50689697 C-39.2426442 46.57424011 -39.20045258 45.64158325 -39.15698242 44.68066406 C-39.11671432 43.61986633 -39.07644623 42.5590686 -39.03495789 41.46612549 C-38.97572647 40.32746033 -38.91649506 39.18879517 -38.85546875 38.015625 C-38.80683182 36.84489441 -38.75819489 35.67416382 -38.70808411 34.46795654 C-38.54930547 30.72782374 -38.36867231 26.98910847 -38.1875 23.25 C-38.07603355 20.71490667 -37.96598991 18.17975036 -37.85742188 15.64453125 C-37.58812188 9.42886222 -37.30087125 3.21421647 -37 -3 C-24.9753215 -4.81062717 -10.95563416 -6.29948964 0 0 Z " fill="#E2BB79" transform="translate(49,60)"/>
<path d="M0 0 C0.33 2.31 0.66 4.62 1 7 C0.48050781 7.23074219 -0.03898437 7.46148437 -0.57421875 7.69921875 C-7.20238891 10.79889907 -11.39282826 13.96533391 -14 21 C-13.09378906 20.855625 -12.18757812 20.71125 -11.25390625 20.5625 C-4.41922295 19.52102445 2.08795238 18.76165353 9 19 C9.495 22.96 9.495 22.96 10 27 C7.27172635 27.50534727 4.54255306 28.00443845 1.8125 28.5 C0.65911133 28.71462891 0.65911133 28.71462891 -0.51757812 28.93359375 C-4.39421773 29.63238715 -8.041471 30.19039017 -12 30 C-9.7954381 35.49955227 -5.10360642 37.4752 0 40 C3.95218365 41.5122205 7.93886995 42.81375926 12 44 C11.34 46.31 10.68 48.62 10 51 C5.48602996 52.45896077 2.45917899 50.88266545 -1.6875 49 C-2.40067383 48.68111816 -3.11384766 48.36223633 -3.84863281 48.03369141 C-11.44716112 44.51431847 -18.27638612 40.08542081 -23 33 C-24.9634345 27.10969651 -25.26887866 20.16985554 -22.94140625 14.35546875 C-18.94265427 7.99431045 -8.25909197 -3.49423122 0 0 Z " fill="#E1BA78" transform="translate(205,68)"/>
<path d="M0 0 C1.89175924 -0.03913985 3.78375697 -0.06684172 5.67578125 -0.08984375 C7.25613159 -0.11485962 7.25613159 -0.11485962 8.8684082 -0.14038086 C13.08643377 0.04870191 18.85431311 0.85431311 22 4 C22 7.3125 22 7.3125 21 11 C16.13906107 14.76970774 12.05772881 15.57489622 6 16 C6 18.64 6 21.28 6 24 C6.65226562 24.03738281 7.30453125 24.07476562 7.9765625 24.11328125 C14.28616873 24.58789765 19.33920324 25.33920324 24 30 C24.68181818 36.93181818 24.68181818 36.93181818 22.125 40.9375 C18.67111417 44.28980095 16.53701999 44.13587346 11.8125 44.125 C10.70519531 44.12757812 9.59789062 44.13015625 8.45703125 44.1328125 C4.91099541 43.99658061 1.50189392 43.560659 -2 43 C-2.30655129 28.55802822 -1.38768858 14.37327967 0 0 Z " fill="#FEFDFD" transform="translate(22,63)"/>
<path d="M0 0 C2.97 0.33 5.94 0.66 9 1 C9.29623252 10.0515493 8.7484903 18.92206339 8 27.9375 C5.52210926 46.67761378 5.52210926 46.67761378 11 64 C9.02 65.32 7.04 66.64 5 68 C-0.28810367 64.2742906 -3.41698111 60.36932307 -5 54 C-5.31324222 47.73216749 -4.78756326 41.52423305 -4.16015625 35.29296875 C-4.07374374 34.40515213 -3.98733124 33.51733551 -3.89830017 32.60261536 C-3.71627736 30.74276457 -3.53213376 28.88312022 -3.34594727 27.02368164 C-3.06159262 24.17842076 -2.78519824 21.33246512 -2.50976562 18.48632812 C-2.33119795 16.67182881 -2.15217751 14.85737397 -1.97265625 13.04296875 C-1.89032242 12.19502243 -1.80798859 11.34707611 -1.72315979 10.47343445 C-1.60314857 9.28618523 -1.60314857 9.28618523 -1.48071289 8.07495117 C-1.41187393 7.38261887 -1.34303497 6.69028656 -1.27210999 5.97697449 C-1 4 -1 4 0 0 Z " fill="#E1BA77" transform="translate(165,52)"/>
<path d="M0 0 C3.3 0.33 6.6 0.66 10 1 C9.51487381 12.65579496 8.80672533 24.25603631 7.66064453 35.86743164 C5.92134431 48.49113862 5.92134431 48.49113862 9.5 60.1875 C9.9640625 60.92355469 10.428125 61.65960938 10.90625 62.41796875 C11.2671875 62.94003906 11.628125 63.46210937 12 64 C10.02 65.32 8.04 66.64 6 68 C2.64933828 66.614012 1.16628149 65.2243823 -0.6875 62.125 C-1.10386719 61.44695312 -1.52023438 60.76890625 -1.94921875 60.0703125 C-6.27000156 51.557246 -3.90310544 40.08489614 -3.125 30.9375 C-3.03621582 29.85927979 -2.94743164 28.78105957 -2.85595703 27.67016602 C-2.07655813 18.42627589 -1.10568301 9.21010423 0 0 Z " fill="#E1BA77" transform="translate(141,52)"/>
<path d="M0 0 C0 2.64 0 5.28 0 8 C-0.94359375 8.23783203 -0.94359375 8.23783203 -1.90625 8.48046875 C-9.31747514 10.50069729 -15.33129382 12.92072364 -20.4375 18.8125 C-23.33306142 24.7194453 -23.1968572 29.61676161 -22 36 C-21.91250118 38.67357492 -21.95386078 41.32392544 -22 44 C-25.63 44 -29.26 44 -33 44 C-33.05607422 41.44958984 -33.05607422 41.44958984 -33.11328125 38.84765625 C-33.17897493 36.58591669 -33.24542107 34.3241989 -33.3125 32.0625 C-33.33505859 30.94552734 -33.35761719 29.82855469 -33.38085938 28.67773438 C-33.57399147 22.69063943 -34.09339889 17.50481628 -36.27026367 11.90014648 C-37.01717415 9.95528056 -37.53171331 8.02811325 -38 6 C-33.60546875 1.99609375 -33.60546875 1.99609375 -32 1 C-29 2 -29 2 -27.83203125 3.84765625 C-27.49558594 4.57855469 -27.15914062 5.30945313 -26.8125 6.0625 C-26.46832031 6.79597656 -26.12414062 7.52945313 -25.76953125 8.28515625 C-25.51558594 8.85105469 -25.26164063 9.41695312 -25 10 C-24.45472656 9.52949219 -23.90945312 9.05898437 -23.34765625 8.57421875 C-16.03327835 2.53516827 -9.56679995 -0.61064681 0 0 Z " fill="#E1BB78" transform="translate(259,72)"/>
<path d="M0 0 C0 2.64 0 5.28 0 8 C-0.85722656 8.21914062 -1.71445313 8.43828125 -2.59765625 8.6640625 C-10.96229682 10.98390645 -16.8742565 13.16864002 -21.66796875 20.578125 C-23.43715356 25.12301032 -23.32916183 29.0512332 -23.1875 33.875 C-23.17396484 34.75414062 -23.16042969 35.63328125 -23.14648438 36.5390625 C-23.11136623 38.69297552 -23.05756694 40.84657004 -23 43 C-26.3 43 -29.6 43 -33 43 C-33.0093457 42.29504395 -33.01869141 41.59008789 -33.02832031 40.86376953 C-33.08256862 37.61684848 -33.16610724 34.37128512 -33.25 31.125 C-33.26417969 30.01640625 -33.27835937 28.9078125 -33.29296875 27.765625 C-33.48807035 21.1321706 -34.32605578 16.06378793 -37.34667969 10.11669922 C-38 8 -38 8 -37.23535156 5.83642578 C-35.73581967 3.60727975 -34.32816106 2.34045637 -32 1 C-29 2 -29 2 -27.8125 3.75 C-26.89161097 6.30015424 -26.94207505 8.30871768 -27 11 C-26.50371094 10.61328125 -26.00742188 10.2265625 -25.49609375 9.828125 C-17.04699699 3.35101856 -10.90153572 -0.2137556 0 0 Z " fill="#E1BA76" transform="translate(100,72)"/>
<path d="M0 0 C0.69921875 2.203125 0.69921875 2.203125 1 5 C-0.29296875 7.421875 -0.29296875 7.421875 -2.1875 9.75 C-2.79980469 10.52859375 -3.41210938 11.3071875 -4.04296875 12.109375 C-6.0916053 14.08849694 -7.2192134 14.63005056 -10 15 C-9.8125 13.25 -9.8125 13.25 -9 11 C-8.195625 10.360625 -7.39125 9.72125 -6.5625 9.0625 C-3.79111981 6.83187692 -3.02272167 5.3470891 -2 2 C-7.60603805 5.06997322 -11.23987559 9.1959086 -14 15 C-14.22017909 17.69094081 -14.22017909 17.69094081 -14 20 C-10.10453349 20.46374601 -8.32346455 20.19803952 -4.9375 18.125 C-1.61811113 15.10105411 0.0299811 11.36176095 1.82421875 7.3046875 C2.98681906 5.02583639 4.01702258 3.6010319 6 2 C6.66 2 7.32 2 8 2 C7.67 3.65 7.34 5.3 7 7 C6.34 6.67 5.68 6.34 5 6 C5 6.99 5 7.98 5 9 C4.125 10.9375 4.125 10.9375 3 13 C2.62875 13.7425 2.2575 14.485 1.875 15.25 C1.58625 15.8275 1.2975 16.405 1 17 C4.03036219 15.35494624 6.16399859 13.82800148 8.5625 11.3125 C11 9 11 9 15 9 C14.8125 10.875 14.8125 10.875 14 13 C11.4375 14.25 11.4375 14.25 9 15 C9 15.66 9 16.32 9 17 C13.35108463 15.68148951 16.01711334 13.39723013 19.25390625 10.33984375 C21.16957134 8.8698815 22.64278312 8.41779993 25 8 C26.60031344 11.20062687 25.03173691 13.72271806 24 17 C24.66 17.33 25.32 17.66 26 18 C25.34 18.66 24.68 19.32 24 20 C23.01 20 22.02 20 21 20 C20.505 19.01 20.505 19.01 20 18 C19.401875 18.165 18.80375 18.33 18.1875 18.5 C16 19 16 19 13 19 C11.989375 19.20625 10.97875 19.4125 9.9375 19.625 C8.968125 19.74875 7.99875 19.8725 7 20 C6.34 19.34 5.68 18.68 5 18 C4.34 18.66 3.68 19.32 3 20 C1 19.625 1 19.625 -1 19 C-3.59977808 19 -4.25427682 19.88184607 -6.25 21.5 C-8.90033149 23.45316705 -9.92939626 23.99067498 -13.3125 24.4375 C-16 24 -16 24 -18 22 C-18.70176646 16.91219316 -18.46698434 14.07588495 -15.4375 9.875 C-6.21579747 -1.130145 -6.21579747 -1.130145 0 0 Z " fill="#4D4D4D" transform="translate(35,123)"/>
<path d="M0 0 C1.32 0.33 2.64 0.66 4 1 C3.67 7.27 3.34 13.54 3 20 C3.66 20 4.32 20 5 20 C4.505 21.485 4.505 21.485 4 23 C3.01 23 2.02 23 1 23 C0.34 21.68 -0.32 20.36 -1 19 C-1.7425 19.845625 -2.485 20.69125 -3.25 21.5625 C-6 24 -6 24 -8.1875 24 C-10 23 -10 23 -12 20 C-12.4125 20.515625 -12.825 21.03125 -13.25 21.5625 C-13.8275 22.036875 -14.405 22.51125 -15 23 C-16.32 22.67 -17.64 22.34 -19 22 C-19.66 19.36 -20.32 16.72 -21 14 C-21.598125 14.9075 -22.19625 15.815 -22.8125 16.75 C-26.4957265 22.22222222 -26.4957265 22.22222222 -28 24 C-28.66 24 -29.32 24 -30 24 C-30 19.05 -30 14.1 -30 9 C-29.01 9.33 -28.02 9.66 -27 10 C-26.67 11.65 -26.34 13.3 -26 15 C-25.773125 14.38125 -25.54625 13.7625 -25.3125 13.125 C-23.62070165 10.38589791 -22.00755839 9.94975528 -19 9 C-17.39644899 12.50776784 -16.77963136 15.14354879 -17 19 C-16.01 19 -15.02 19 -14 19 C-13.67 18.01 -13.34 17.02 -13 16 C-12.01 16 -11.02 16 -10 16 C-9.7834375 14.576875 -9.7834375 14.576875 -9.5625 13.125 C-9 10 -9 10 -8 8 C-2.55072464 6.72463768 -2.55072464 6.72463768 0 8 C0 5.36 0 2.72 0 0 Z " fill="#85662E" transform="translate(98,6)"/>
<path d="M0 0 C5.625 -0.25 5.625 -0.25 9 2 C7.6393319 8.75523606 5.71290027 15.08575595 3.375 21.5625 C3.05015625 22.47580078 2.7253125 23.38910156 2.390625 24.33007812 C1.59847955 26.5550749 0.79991232 28.77778368 0 31 C-3.3 30.34 -6.6 29.68 -10 29 C-9.22074679 25.10373397 -8.32698304 21.93163139 -6.93359375 18.26171875 C-6.53076172 17.19501953 -6.12792969 16.12832031 -5.71289062 15.02929688 C-5.29201172 13.92650391 -4.87113281 12.82371094 -4.4375 11.6875 C-4.01275391 10.56537109 -3.58800781 9.44324219 -3.15039062 8.28710938 C-2.10371244 5.52340854 -1.05347135 2.76111699 0 0 Z " fill="#E1BA78" transform="translate(115,83)"/>
<path d="M0 0 C0.66 0 1.32 0 2 0 C1.67 1.65 1.34 3.3 1 5 C0.34 4.67 -0.32 4.34 -1 4 C-1 4.99 -1 5.98 -1 7 C-1.63270867 8.34977849 -2.30062468 9.68352881 -3 11 C-3.33 11.99 -3.66 12.98 -4 14 C0.04822294 12.65059235 1.45210569 10.35249252 4 7 C4.33 6.01 4.66 5.02 5 4 C5.99 4.33 6.98 4.66 8 5 C6 8 4 11 2 14 C5.55514648 12.98424386 7.43437392 11.71823053 9.6875 8.875 C10.450625 7.92625 11.21375 6.9775 12 6 C12.66 6 13.32 6 14 6 C14 9.33333333 14 12.66666667 14 16 C8.25 17.125 8.25 17.125 6 16 C4.32706064 16.30027117 2.66014616 16.63557767 1 17 C-2 17 -2 17 -4.9375 16.375 C-8.18073883 15.97786872 -9.32333988 16.24987608 -12 18 C-12.66 17.34 -13.32 16.68 -14 16 C-16.10820797 16.3185177 -16.10820797 16.3185177 -18 17 C-18 16.34 -18 15.68 -18 15 C-18.99 15.66 -19.98 16.32 -21 17 C-21.99 17 -22.98 17 -24 17 C-24 15.68 -24 14.36 -24 13 C-24.45375 13.495 -24.9075 13.99 -25.375 14.5 C-27 16 -27 16 -29 16 C-29.33 15.01 -29.66 14.02 -30 13 C-28.8125 10.8125 -28.8125 10.8125 -27 9 C-25.68 9 -24.36 9 -23 9 C-21.65835921 8.7018576 -20.32148827 8.37756808 -19 8 C-19.66 9.65 -20.32 11.3 -21 13 C-20.34 13 -19.68 13 -19 13 C-18.4225 12.21625 -17.845 11.4325 -17.25 10.625 C-14.65878871 7.60192016 -12.80315606 6.95078902 -9 6 C-8 8 -8 8 -8.9375 11.125 C-9.4634375 12.548125 -9.4634375 12.548125 -10 14 C-9.01 14 -8.02 14 -7 14 C-6.95875 13.175 -6.9175 12.35 -6.875 11.5 C-5.71189057 6.84756227 -3.30678688 3.45589929 0 0 Z " fill="#E5C493" transform="translate(124,151)"/>
<path d="M0 0 C2.06326977 0.08760589 4.1256716 0.19579273 6.1875 0.3125 C7.91033203 0.39951172 7.91033203 0.39951172 9.66796875 0.48828125 C13.14680104 1.02254506 15.14531638 1.9947326 18 4 C17 7 17 7 14 9 C16.64 9.99 19.28 10.98 22 12 C21.67 13.32 21.34 14.64 21 16 C15.81292356 18.9177305 10.88464919 19.6130276 5 20 C5 17.36 5 14.72 5 12 C4.34 12 3.68 12 3 12 C3.33 9.36 3.66 6.72 4 4 C2.35 3.67 0.7 3.34 -1 3 C-0.67 2.01 -0.34 1.02 0 0 Z " fill="#876832" transform="translate(15,10)"/>
<path d="M0 0 C1.45212891 -0.03867188 1.45212891 -0.03867188 2.93359375 -0.078125 C5.5625 0.25 5.5625 0.25 7.41015625 1.55078125 C8.5625 3.25 8.5625 3.25 8.5625 6.6875 C7.5625 10.25 7.5625 10.25 5.5625 12.625 C1.60462133 14.76885095 -1.99170722 15.05628354 -6.4375 15.25 C-6.56125 16.054375 -6.685 16.85875 -6.8125 17.6875 C-7.121875 18.9559375 -7.121875 18.9559375 -7.4375 20.25 C-8.0975 20.58 -8.7575 20.91 -9.4375 21.25 C-9.37749894 19.6239713 -9.2887115 17.99898451 -9.1875 16.375 C-9.14109375 15.47007812 -9.0946875 14.56515625 -9.046875 13.6328125 C-8.4375 11.25 -8.4375 11.25 -6.5 10.09375 C-5.819375 9.8153125 -5.13875 9.536875 -4.4375 9.25 C-2.68427063 6.71811352 -2.68427063 6.71811352 -1.4375 4.25 C-4.0775 4.58 -6.7175 4.91 -9.4375 5.25 C-7.18703559 0.26682881 -5.33847377 0.08507528 0 0 Z " fill="#E5C493" transform="translate(19.4375,149.75)"/>
<path d="M0 0 C3 0.75 3 0.75 6 1.75 C5.98839844 2.66523438 5.97679687 3.58046875 5.96484375 4.5234375 C5.95582031 5.71195313 5.94679688 6.90046875 5.9375 8.125 C5.92589844 9.30835938 5.91429687 10.49171875 5.90234375 11.7109375 C5.78533407 14.66921521 5.78533407 14.66921521 7 16.75 C5.68 17.08 4.36 17.41 3 17.75 C2.34 16.1 1.68 14.45 1 12.75 C-0.65 14.4 -2.3 16.05 -4 17.75 C-5.32 17.09 -6.64 16.43 -8 15.75 C-7.74462428 13.6439014 -7.47014626 11.54011246 -7.1875 9.4375 C-7.03667969 8.26574219 -6.88585938 7.09398437 -6.73046875 5.88671875 C-5.69028181 1.42003365 -4.73403937 -0.39450328 0 0 Z " fill="#8B6C37" transform="translate(58,12.25)"/>
<path d="M0 0 C0.66 0 1.32 0 2 0 C2.58597066 3.44257761 3 6.52308174 3 10 C0 12 0 12 -2.6875 11.625 C-3.450625 11.41875 -4.21375 11.2125 -5 11 C-5 10.34 -5 9.68 -5 9 C-5.7425 9.515625 -6.485 10.03125 -7.25 10.5625 C-10 12 -10 12 -12.125 11.6875 C-12.74375 11.460625 -13.3625 11.23375 -14 11 C-16.83967231 11 -19.23735711 11.40267181 -22 12 C-22.33 11.01 -22.66 10.02 -23 9 C-23.66 8.67 -24.32 8.34 -25 8 C-24.09827532 6.82174642 -23.17798498 5.65768423 -22.25 4.5 C-21.73953125 3.8503125 -21.2290625 3.200625 -20.703125 2.53125 C-19 1 -19 1 -15 1 C-16.04874998 3.62187494 -16.64931313 4.79371361 -19.125 6.25 C-19.74375 6.4975 -20.3625 6.745 -21 7 C-21 7.66 -21 8.32 -21 9 C-18.05908413 8.81584568 -18.05908413 8.81584568 -15 8 C-13.74172877 6.15017528 -13.74172877 6.15017528 -13 4 C-11.625 2.25 -11.625 2.25 -10 1 C-8.68 1 -7.36 1 -6 1 C-6.1875 2.875 -6.1875 2.875 -7 5 C-9.5625 6.25 -9.5625 6.25 -12 7 C-12 7.66 -12 8.32 -12 9 C-6.18079587 6.94616325 -3.7644571 4.84001627 0 0 Z " fill="#1D1D1D" transform="translate(191,131)"/>
<path d="M0 0 C1.32 0.33 2.64 0.66 4 1 C3.67 7.27 3.34 13.54 3 20 C3.66 20 4.32 20 5 20 C4.67 20.99 4.34 21.98 4 23 C3.01 23 2.02 23 1 23 C0.01 21.02 -0.98 19.04 -2 17 C-3.98 18.32 -5.96 19.64 -8 21 C-8.144375 20.05125 -8.28875 19.1025 -8.4375 18.125 C-8.82935399 15.1065506 -8.82935399 15.1065506 -10 13 C-9.4375 10.4375 -9.4375 10.4375 -8 8 C-2.94736842 6.52631579 -2.94736842 6.52631579 0 8 C0 5.36 0 2.72 0 0 Z " fill="#9A8052" transform="translate(98,6)"/>
<path d="M0 0 C-1.08829102 0.42821045 -2.17658203 0.8564209 -3.29785156 1.29760742 C-7.39109878 2.9085478 -11.48372184 4.52106885 -15.57617188 6.1340332 C-17.33707349 6.82781429 -19.09813717 7.52118421 -20.859375 8.21411133 C-23.41190157 9.21844351 -25.96392484 10.22403886 -28.515625 11.23046875 C-29.34163208 11.55610809 -30.16763916 11.88174744 -31.01867676 12.21725464 C-36.67459027 14.4548671 -42.28880016 16.7715285 -47.87402344 19.1809082 C-50 20 -50 20 -52 20 C-51.67 18.02 -51.34 16.04 -51 14 C-50.22100342 13.75878418 -49.44200684 13.51756836 -48.6394043 13.26904297 C-45.65550431 12.34480088 -42.67182067 11.41986304 -39.68817139 10.49481201 C-37.69293836 9.87668482 -35.69732203 9.25980744 -33.70166016 8.64306641 C-27.77228627 6.80834033 -21.84755924 4.96414192 -15.94921875 3.03125 C-15.07885986 2.74781738 -14.20850098 2.46438477 -13.31176758 2.17236328 C-11.72191326 1.65212842 -10.13436457 1.12477797 -8.54956055 0.58935547 C-3.33276937 -1.11092312 -3.33276937 -1.11092312 0 0 Z " fill="#F5EC9B" transform="translate(107,50)"/>
<path d="M0 0 C0.66 0 1.32 0 2 0 C1.42482026 3.5948734 -0.25223293 6.24017504 -2.078125 9.31640625 C-3.09455862 11.17268969 -3.66556779 12.90979872 -4 15 C-3.01 15.33 -2.02 15.66 -1 16 C-1.66 16.66 -2.32 17.32 -3 18 C-3.99 18 -4.98 18 -6 18 C-6.33 17.01 -6.66 16.02 -7 15 C-8.32 15.99 -9.64 16.98 -11 18 C-11.33 17.01 -11.66 16.02 -12 15 C-12.5775 15.495 -13.155 15.99 -13.75 16.5 C-16 18 -16 18 -20 18 C-20.36923077 12.58461538 -20.36923077 12.58461538 -18.5 9.625 C-18.005 9.08875 -17.51 8.5525 -17 8 C-17.66 7.67 -18.32 7.34 -19 7 C-13.25 3 -13.25 3 -11 3 C-11.33 4.98 -11.66 6.96 -12 9 C-12.99 9.33 -13.98 9.66 -15 10 C-16.21869929 12.50447516 -16.21869929 12.50447516 -17 15 C-14.11862149 13.86802987 -12.99157113 12.98848055 -11.125 10.4375 C-9 8 -9 8 -5.875 7.5 C-4.92625 7.335 -3.9775 7.17 -3 7 C-1.59742124 4.61880754 -1.59742124 4.61880754 -1 2 C-0.67 1.34 -0.34 0.68 0 0 Z " fill="#212121" transform="translate(242,125)"/>
<path d="M0 0 C-0.48699617 4.38296556 -1.83395891 6.03183648 -5 9 C-5.33 9.99 -5.66 10.98 -6 12 C-2.76540385 10.33649341 -0.55303891 8.63317844 1.6875 5.8125 C2.450625 4.884375 3.21375 3.95625 4 3 C4.66 3 5.32 3 6 3 C6 5.31 6 7.62 6 10 C6.66 10.33 7.32 10.66 8 11 C6.4375 12.5625 6.4375 12.5625 4 14 C1.6618385 13.70241581 -0.67182036 13.36760731 -3 13 C-5.84902067 13.81971716 -5.84902067 13.81971716 -8 15 C-8.66 14.34 -9.32 13.68 -10 13 C-12.60280568 13.32041397 -12.60280568 13.32041397 -15 14 C-15.6875 11.75 -15.6875 11.75 -16 9 C-14.5625 6.6875 -14.5625 6.6875 -13 5 C-12.01 5.33 -11.02 5.66 -10 6 C-11.485 8.475 -11.485 8.475 -13 11 C-10.53199953 9.84826645 -8.95216435 8.95216435 -7 7 C-7 5.68 -7 4.36 -7 3 C-2.92857143 0 -2.92857143 0 0 0 Z " fill="#E6C799" transform="translate(207,154)"/>
<path d="M0 0 C-0.125 2.1875 -0.125 2.1875 -1 5 C-2.95927063 6.7143618 -4.95880212 8.38405168 -7 10 C-7.33 10.99 -7.66 11.98 -8 13 C-3.25091453 10.19372222 -0.80627778 7.74908547 2 3 C2.99 3.33 3.98 3.66 5 4 C2.24229001 10.28416216 -0.03081689 15.34539809 -6 19 C-9.3125 19.375 -9.3125 19.375 -12 19 C-12.33 18.67 -12.66 18.34 -13 18 C-12.86878664 11.57054517 -10.32654925 7.66091957 -6 3 C-2.41216216 0 -2.41216216 0 0 0 Z " fill="#F5F5F5" transform="translate(33,125)"/>
<path d="M0 0 C0.98484375 0.02707031 1.9696875 0.05414063 2.984375 0.08203125 C3.73203125 0.11683594 4.4796875 0.15164062 5.25 0.1875 C5.25 1.5075 5.25 2.8275 5.25 4.1875 C3.4246875 4.1565625 3.4246875 4.1565625 1.5625 4.125 C-1.66977322 4.11925884 -4.59934741 4.39983685 -7.75 5.1875 C-7.75 6.1775 -7.75 7.1675 -7.75 8.1875 C-6.38875 8.3421875 -6.38875 8.3421875 -5 8.5 C-1.73038425 9.19164949 -0.21282263 10.00884921 2.25 12.1875 C1.9375 14.5625 1.9375 14.5625 1.25 17.1875 C-2.38195496 19.60880331 -4.13349348 19.39772785 -8.4375 19.3125 C-9.61699219 19.29445312 -10.79648438 19.27640625 -12.01171875 19.2578125 C-12.91535156 19.23460937 -13.81898437 19.21140625 -14.75 19.1875 C-14.375 17.25 -14.375 17.25 -13.75 15.1875 C-10.98547967 13.80523984 -8.7038637 14.09224613 -5.625 14.125 C-4.52929688 14.13402344 -3.43359375 14.14304688 -2.3046875 14.15234375 C-1.46164063 14.16394531 -0.61859375 14.17554688 0.25 14.1875 C0.25 13.5275 0.25 12.8675 0.25 12.1875 C-0.37648438 12.06632813 -1.00296875 11.94515625 -1.6484375 11.8203125 C-2.87433594 11.56894531 -2.87433594 11.56894531 -4.125 11.3125 C-4.93710938 11.15007812 -5.74921875 10.98765625 -6.5859375 10.8203125 C-8.75 10.1875 -8.75 10.1875 -10.75 8.1875 C-10.59457901 5.15679076 -10.25194796 3.67556921 -8.0546875 1.5390625 C-5.16813427 -0.15372973 -3.32043254 -0.11858688 0 0 Z " fill="#1E1E1E" transform="translate(127.75,124.8125)"/>
<path d="M0 0 C1.67542976 0.28604898 3.34385343 0.61781233 5 1 C4.67 3.31 4.34 5.62 4 8 C4.66 8 5.32 8 6 8 C6.37125 6.7934375 6.37125 6.7934375 6.75 5.5625 C8 3 8 3 10.125 2.1875 C10.74375 2.125625 11.3625 2.06375 12 2 C10.68 4.31 9.36 6.62 8 9 C11.42578949 5.82460444 11.42578949 5.82460444 14 2 C14.66 2 15.32 2 16 2 C16 3.32 16 4.64 16 6 C16.61875 5.175 17.2375 4.35 17.875 3.5 C18.57625 2.675 19.2775 1.85 20 1 C20.66 1 21.32 1 22 1 C21.37240135 3.92879371 20.41377341 6.36095629 19 9 C19.99 9.33 20.98 9.66 22 10 C20.02 10.99 20.02 10.99 18 12 C17.34 11.34 16.68 10.68 16 10 C13.57061311 10.35232207 13.57061311 10.35232207 11 11 C7.33333333 11 3.66666667 11 0 11 C0.33 9.35 0.66 7.7 1 6 C-0.98 6.99 -0.98 6.99 -3 8 C-1.125 1.125 -1.125 1.125 0 0 Z " fill="#1D1D1D" transform="translate(144,131)"/>
<path d="M0 0 C0.99 0 1.98 0 3 0 C1.83565899 4.89023225 0.03068924 7.31329097 -3.66015625 10.5078125 C-5.25301732 12.28178605 -5.59636206 13.67783607 -6 16 C-5.34 16 -4.68 16 -4 16 C-3.67 14.35 -3.34 12.7 -3 11 C-2.01 10.67 -1.02 10.34 0 10 C0.33 10.99 0.66 11.98 1 13 C1.763125 12.175 2.52625 11.35 3.3125 10.5 C6 8 6 8 9 8 C8.45773019 11.79588866 6.79872437 13.47211993 4 16 C5.65 15.67 7.3 15.34 9 15 C7.68 16.32 6.36 17.64 5 19 C4.4225 18.67 3.845 18.34 3.25 18 C0.80116138 16.72924102 0.80116138 16.72924102 -3 17 C-5.20067421 17.93283296 -5.20067421 17.93283296 -7 19 C-8 18 -8 18 -8.5 14.5 C-8.48895767 8.393592 -4.12242093 4.12242093 0 0 Z " fill="#E6C79A" transform="translate(231,150)"/>
<path d="M0 0 C0.69921875 2.203125 0.69921875 2.203125 1 5 C-0.29296875 7.421875 -0.29296875 7.421875 -2.1875 9.75 C-2.79980469 10.52859375 -3.41210938 11.3071875 -4.04296875 12.109375 C-6.0916053 14.08849694 -7.2192134 14.63005056 -10 15 C-9.8125 13.25 -9.8125 13.25 -9 11 C-8.195625 10.360625 -7.39125 9.72125 -6.5625 9.0625 C-3.79111981 6.83187692 -3.02272167 5.3470891 -2 2 C-7.60603805 5.06997322 -11.23987559 9.1959086 -14 15 C-14.22017909 17.69094081 -14.22017909 17.69094081 -14 20 C-12.68 20.66 -11.36 21.32 -10 22 C-10 22.66 -10 23.32 -10 24 C-12.875 24.125 -12.875 24.125 -16 24 C-18 22 -18 22 -18.5 18.375 C-18.33054649 12.13911071 -14.35752508 8.42990524 -10.21875 4.1640625 C-6.9247476 1.08677078 -4.74511504 -0.86274819 0 0 Z " fill="#070707" transform="translate(35,123)"/>
<path d="M0 0 C0.66 0.33 1.32 0.66 2 1 C0.79135813 4.43998071 -0.38557192 6.49924271 -3 9 C-3.33 9.99 -3.66 10.98 -4 12 C-2.68 11.34 -1.36 10.68 0 10 C-0.33 10.99 -0.66 11.98 -1 13 C-3.5625 14.1875 -3.5625 14.1875 -6 15 C-6.66 14.34 -7.32 13.68 -8 13 C-9.65 13.66 -11.3 14.32 -13 15 C-13.33 14.34 -13.66 13.68 -14 13 C-15.32 13.33 -16.64 13.66 -18 14 C-18.33 12.35 -18.66 10.7 -19 9 C-13.5 4 -13.5 4 -9 4 C-9.875 8.75 -9.875 8.75 -11 11 C-8.46115547 9.84434349 -8.46115547 9.84434349 -6 8 C-5.835 7.175 -5.67 6.35 -5.5 5.5 C-5 3 -5 3 -2.5625 1.125 C-1.716875 0.75375 -0.87125 0.3825 0 0 Z " fill="#E6C697" transform="translate(183,154)"/>
<path d="M0 0 C4.875 4.625 4.875 4.625 6 8 C4.25705322 8.86846831 2.50531337 9.71930627 0.75 10.5625 C-0.22453125 11.03816406 -1.1990625 11.51382813 -2.203125 12.00390625 C-5 13 -5 13 -7.171875 12.96484375 C-9 12 -9 12 -12 7 C-8.04 4.69 -4.08 2.38 0 0 Z " fill="#E2BC7C" transform="translate(126,61)"/>
<path d="M0 0 C-1.23551244 3.70653731 -2.96665078 4.64915435 -6 7 C-6.33 7.66 -6.66 8.32 -7 9 C-6.51789063 8.566875 -6.03578125 8.13375 -5.5390625 7.6875 C-4.90742187 7.130625 -4.27578125 6.57375 -3.625 6 C-2.99851562 5.443125 -2.37203125 4.88625 -1.7265625 4.3125 C0 3 0 3 2 3 C2.33 4.98 2.66 6.96 3 9 C2.278125 9.53625 1.55625 10.0725 0.8125 10.625 C-1.37797144 12.47473144 -2.93411359 14.04783016 -4.6875 16.25 C-5.450625 17.1575 -6.21375 18.065 -7 19 C-7.66 19 -8.32 19 -9 19 C-7.55746343 15.63408134 -5.66735273 13.48952921 -3 11 C-3.33 10.67 -3.66 10.34 -4 10 C-5.33841672 10.31229724 -6.67139075 10.64830932 -8 11 C-8.99 11 -9.98 11 -11 11 C-12.33981486 11.3062434 -13.67511887 11.63451555 -15 12 C-14.835 11.071875 -14.67 10.14375 -14.5 9.1875 C-13.92251612 6.04378647 -13.92251612 6.04378647 -14 3 C-12.68 2.34 -11.36 1.68 -10 1 C-10 3 -10 5 -10 7 C-9.236875 6.21625 -8.47375 5.4325 -7.6875 4.625 C-2.95238095 0 -2.95238095 0 0 0 Z " fill="#222222" transform="translate(101,131)"/>
<path d="M0 0 C-0.70554068 3.66881155 -2.27735506 6.70450534 -4 10 C-4.99 10 -5.98 10 -7 10 C-6.67 8.68 -6.34 7.36 -6 6 C-8.31 9.3 -10.62 12.6 -13 16 C-9.7 16.33 -6.4 16.66 -3 17 C-3.66 18.32 -4.32 19.64 -5 21 C-5.98742187 20.9278125 -6.97484375 20.855625 -7.9921875 20.78125 C-9.91417969 20.64203125 -9.91417969 20.64203125 -11.875 20.5 C-13.15117187 20.4071875 -14.42734375 20.314375 -15.7421875 20.21875 C-17.49236684 20.10123196 -19.24587965 20 -21 20 C-20.3125 18.0625 -20.3125 18.0625 -19 16 C-18.175 15.855625 -17.35 15.71125 -16.5 15.5625 C-15.675 15.376875 -14.85 15.19125 -14 15 C-13.56494141 13.90945312 -13.56494141 13.90945312 -13.12109375 12.796875 C-11.7792999 9.44940322 -9.97305065 7.3592926 -7.5625 4.6875 C-6.78003906 3.80449219 -5.99757812 2.92148438 -5.19140625 2.01171875 C-3 0 -3 0 0 0 Z " fill="#1D1D1D" transform="translate(223,123)"/>
<path d="M0 0 C0.66 0 1.32 0 2 0 C1.4665212 4.53456977 -0.4408192 7.28506014 -3 11 C-3 11.66 -3 12.32 -3 13 C-2.01 13.33 -1.02 13.66 0 14 C0.268125 13.21625 0.53625 12.4325 0.8125 11.625 C2 9 2 9 5 7 C6.32 7 7.64 7 9 7 C8.34 8.65 7.68 10.3 7 12 C6.34 11.67 5.68 11.34 5 11 C4.34 12.32 3.68 13.64 3 15 C4.65 14.67 6.3 14.34 8 14 C8 14.66 8 15.32 8 16 C5 18 5 18 2.8125 17.625 C1.9153125 17.315625 1.9153125 17.315625 1 17 C1 16.34 1 15.68 1 15 C-1.33075929 15.95865509 -1.33075929 15.95865509 -3 19 C-3 18.01 -3 17.02 -3 16 C-3.99 16 -4.98 16 -6 16 C-6 18.64 -6 21.28 -6 24 C-6.66 24 -7.32 24 -8 24 C-8.63229927 13.97103102 -8.63229927 13.97103102 -6.25 10.3125 C-5.5075 9.549375 -4.765 8.78625 -4 8 C-2.54300671 5.39119444 -1.26297662 2.70733819 0 0 Z " fill="#E4C290" transform="translate(52,151)"/>
<path d="M0 0 C0.66 0.33 1.32 0.66 2 1 C-4.01982037 6.52360958 -10.15549927 11.84694496 -16.51171875 16.98046875 C-18.5599752 18.64286841 -20.56650689 20.33846702 -22.5625 22.0625 C-25 24 -25 24 -27 24 C-27.33 22.68 -27.66 21.36 -28 20 C-18.75340986 13.20984742 -9.38375886 6.59854948 0 0 Z " fill="#F5EC9C" transform="translate(81,38)"/>
<path d="M0 0 C0.99 0 1.98 0 3 0 C3.33 2.31 3.66 4.62 4 7 C2.3125 8.5625 2.3125 8.5625 0 10 C-2.4375 9.625 -2.4375 9.625 -5 9 C-5.86625 9.20625 -6.7325 9.4125 -7.625 9.625 C-8.800625 9.810625 -8.800625 9.810625 -10 10 C-11.8125 8.5625 -11.8125 8.5625 -13 7 C-11.38405168 4.95880212 -9.7143618 2.95927063 -8 1 C-7.34 1 -6.68 1 -6 1 C-6.309375 1.598125 -6.61875 2.19625 -6.9375 2.8125 C-8.10209704 5.08956772 -8.10209704 5.08956772 -9 8 C-5.94704852 6.86927723 -4.39203206 5.38627756 -2.4375 2.875 C-1.633125 1.92625 -0.82875 0.9775 0 0 Z " fill="#E8CCA3" transform="translate(90,158)"/>
<path d="M0 0 C0.33 0.99 0.66 1.98 1 3 C1.433125 2.505 1.86625 2.01 2.3125 1.5 C4 0 4 0 7 0 C7 0.99 7 1.98 7 3 C7.45375 2.505 7.9075 2.01 8.375 1.5 C10 0 10 0 12 0 C11.49396008 2.16874252 11.00016187 3.99967627 10 6 C10.99 5.67 11.98 5.34 13 5 C13 5.66 13 6.32 13 7 C10 9 10 9 7 9 C6.67 8.01 6.34 7.02 6 6 C5.01 7.485 5.01 7.485 4 9 C3.34 9 2.68 9 2 9 C2 7.68 2 6.36 2 5 C1.319375 5.99 1.319375 5.99 0.625 7 C0.08875 7.66 -0.4475 8.32 -1 9 C-1.66 9 -2.32 9 -3 9 C-3 8.34 -3 7.68 -3 7 C-3.66 6.67 -4.32 6.34 -5 6 C-3.35 4.02 -1.7 2.04 0 0 Z " fill="#E7C89B" transform="translate(143,159)"/>
<path d="M0 0 C-1.25124755 5.68748885 -3.04102568 8.72847508 -7 13 C-8.5625 12 -8.5625 12 -10 10 C-10.15975986 6.34834599 -9.64053659 3.11251092 -7.8125 -0.0625 C-5.04703299 -1.49291397 -2.93289209 -0.71692918 0 0 Z " fill="#957949" transform="translate(61,13)"/>
<path d="M0 0 C6.75 0.875 6.75 0.875 9 2 C8.8125 3.875 8.8125 3.875 8 6 C5.4375 7.25 5.4375 7.25 3 8 C3 7.34 3 6.68 3 6 C-1.455 6.495 -1.455 6.495 -6 7 C-6 5.35 -6 3.7 -6 2 C-4.02 1.67 -2.04 1.34 0 1 C0 0.67 0 0.34 0 0 Z " fill="#967B4B" transform="translate(28,20)"/>
<path d="M0 0 C0 3 0 3 -1.92773438 5.26831055 C-2.80751953 6.13238525 -3.68730469 6.99645996 -4.59375 7.88671875 C-5.05986694 8.34859085 -5.52598389 8.81046295 -6.00622559 9.28633118 C-7.4972629 10.76056952 -8.99838872 12.22404088 -10.5 13.6875 C-11.51240054 14.68485528 -12.52412811 15.68289417 -13.53515625 16.68164062 C-16.01567629 19.12907564 -18.50535089 21.56695887 -21 24 C-21.99 23.01 -22.98 22.02 -24 21 C-17.56749307 15.04028855 -11.05199479 9.30576339 -4.21484375 3.8125 C-1.97246433 2.03873643 -1.97246433 2.03873643 0 0 Z " fill="#F5EC9E" transform="translate(70,33)"/>
<path d="M0 0 C0.99 0.33 1.98 0.66 3 1 C3.33 1.99 3.66 2.98 4 4 C4.5775 3.505 5.155 3.01 5.75 2.5 C8 1 8 1 12 1 C12 1.66 12 2.32 12 3 C10.576875 3.928125 10.576875 3.928125 9.125 4.875 C5.15583283 7.57403367 4.40893382 9.2006912 3.375 13.75 C3.25125 14.4925 3.1275 15.235 3 16 C2.01 16 1.02 16 0 16 C0 10.72 0 5.44 0 0 Z " fill="#83622A" transform="translate(39,14)"/>
<path d="M0 0 C0.66 0 1.32 0 2 0 C2.58597066 3.44257761 3 6.52308174 3 10 C0 12 0 12 -2.6875 11.625 C-3.450625 11.41875 -4.21375 11.2125 -5 11 C-5 10.34 -5 9.68 -5 9 C-6.98 9.99 -6.98 9.99 -9 11 C-9.99 10.34 -10.98 9.68 -12 9 C-10.948125 8.62875 -9.89625 8.2575 -8.8125 7.875 C-4.61590837 6.11650918 -2.75644419 3.54399967 0 0 Z " fill="#3C3C3C" transform="translate(191,131)"/>
<path d="M0 0 C0.66 0 1.32 0 2 0 C1.42482026 3.5948734 -0.25223293 6.24017504 -2.078125 9.31640625 C-3.09455862 11.17268969 -3.66556779 12.90979872 -4 15 C-3.01 15.33 -2.02 15.66 -1 16 C-1.66 16.66 -2.32 17.32 -3 18 C-3.99 18 -4.98 18 -6 18 C-6.33 17.01 -6.66 16.02 -7 15 C-7.99 15.495 -7.99 15.495 -9 16 C-8.34 14.68 -7.68 13.36 -7 12 C-7.61875 12.350625 -8.2375 12.70125 -8.875 13.0625 C-9.57625 13.371875 -10.2775 13.68125 -11 14 C-11.66 13.67 -12.32 13.34 -13 13 C-11.375 10.5625 -11.375 10.5625 -9 8 C-7.453125 7.7525 -7.453125 7.7525 -5.875 7.5 C-4.92625 7.335 -3.9775 7.17 -3 7 C-1.59742124 4.61880754 -1.59742124 4.61880754 -1 2 C-0.67 1.34 -0.34 0.68 0 0 Z " fill="#1C1C1C" transform="translate(242,125)"/>
<path d="M0 0 C-0.33 1.65 -0.66 3.3 -1 5 C-1.66 4.67 -2.32 4.34 -3 4 C-3 4.99 -3 5.98 -3 7 C-3.6492959 8.34187818 -4.31731862 9.67479497 -5 11 C-5.80528889 13.05000871 -5.80528889 13.05000871 -6 15 C-5.34 15.66 -4.68 16.32 -4 17 C-5.875 17.625 -5.875 17.625 -8 18 C-8.66 17.34 -9.32 16.68 -10 16 C-10.886875 16.845625 -11.77375 17.69125 -12.6875 18.5625 C-15.6008348 21.02603251 -15.6008348 21.02603251 -18.875 20.8125 C-19.57625 20.544375 -20.2775 20.27625 -21 20 C-21 19.67 -21 19.34 -21 19 C-19.9275 18.7525 -18.855 18.505 -17.75 18.25 C-12.92813954 16.64271318 -11.10837691 15.11599228 -8.75390625 10.62109375 C-7.89564058 8.87145425 -7.05853297 7.11122763 -6.24609375 5.33984375 C-3.40233723 0 -3.40233723 0 0 0 Z " fill="#3A3A3A" transform="translate(43,125)"/>
<path d="M0 0 C-0.01740234 0.85658203 -0.01740234 0.85658203 -0.03515625 1.73046875 C-0.11452828 8.86261249 0.37660007 15.8976936 1 23 C-0.32 23 -1.64 23 -3 23 C-3.33 15.74 -3.66 8.48 -4 1 C-5.32 0.67 -6.64 0.34 -8 0 C-2.25 -1.125 -2.25 -1.125 0 0 Z " fill="#F5EC99" transform="translate(31,29)"/>
<path d="M0 0 C0.98484375 0.02707031 1.9696875 0.05414063 2.984375 0.08203125 C3.73203125 0.11683594 4.4796875 0.15164062 5.25 0.1875 C5.25 1.5075 5.25 2.8275 5.25 4.1875 C3.4246875 4.1565625 3.4246875 4.1565625 1.5625 4.125 C-1.66977322 4.11925884 -4.59934741 4.39983685 -7.75 5.1875 C-7.42 6.5075 -7.09 7.8275 -6.75 9.1875 C-8.07 8.8575 -9.39 8.5275 -10.75 8.1875 C-10.43230764 5.24884567 -10.20747951 3.63650766 -8.0625 1.53125 C-5.17179849 -0.14848196 -3.31802027 -0.11850072 0 0 Z " fill="#121212" transform="translate(127.75,124.8125)"/>
<path d="M0 0 C3.28158716 3.06035657 5.71734217 6.32250493 8.1875 10.0625 C8.88230469 11.10535156 9.57710937 12.14820313 10.29296875 13.22265625 C12 16 12 16 13 19 C11.35 19 9.7 19 8 19 C6.84658302 16.77447742 5.70218841 14.54504031 4.5625 12.3125 C4.23701172 11.68666016 3.91152344 11.06082031 3.57617188 10.41601562 C1.82247687 6.96286361 0.52239503 3.84806481 0 0 Z " fill="#F5EC9B" transform="translate(11,34)"/>
<path d="M0 0 C0.33 0.99 0.66 1.98 1 3 C-0.4375 5.6875 -0.4375 5.6875 -2 8 C1.5863464 6.06143438 3.62660802 4.2775413 6 1 C6.66 1 7.32 1 8 1 C7.67 1.763125 7.34 2.52625 7 3.3125 C5.82563314 5.99069135 5.82563314 5.99069135 6 9 C5.2575 9.144375 4.515 9.28875 3.75 9.4375 C1.47972261 9.90187492 -0.75759479 10.41863569 -3 11 C-3.33 10.01 -3.66 9.02 -4 8 C-4.66 7.67 -5.32 7.34 -6 7 C-2.25 1.125 -2.25 1.125 0 0 Z " fill="#1F1F1F" transform="translate(78,132)"/>
<path d="M0 0 C1.1916143 3.57484289 0.74788456 4.28587882 -0.65234375 7.66796875 C-1.01650391 8.56064453 -1.38066406 9.45332031 -1.75585938 10.37304688 C-2.14580078 11.30181641 -2.53574219 12.23058594 -2.9375 13.1875 C-3.32357422 14.12787109 -3.70964844 15.06824219 -4.10742188 16.03710938 C-5.06321649 18.36169628 -6.02767007 20.68229199 -7 23 C-8.32 23 -9.64 23 -11 23 C-10.42590968 19.42635641 -9.50054964 16.71615696 -7.71484375 13.57421875 C-7.26689453 12.77822266 -6.81894531 11.98222656 -6.35742188 11.16210938 C-5.88884766 10.34548828 -5.42027344 9.52886719 -4.9375 8.6875 C-4.46505859 7.85154297 -3.99261719 7.01558594 -3.50585938 6.15429688 C-2.34332244 4.09930735 -1.17457909 2.04812263 0 0 Z " fill="#F5EC9D" transform="translate(49,30)"/>
<path d="M0 0 C0.69921875 2.203125 0.69921875 2.203125 1 5 C-0.29296875 7.421875 -0.29296875 7.421875 -2.1875 9.75 C-2.79980469 10.52859375 -3.41210938 11.3071875 -4.04296875 12.109375 C-6.0916053 14.08849694 -7.2192134 14.63005056 -10 15 C-9.8125 13.25 -9.8125 13.25 -9 11 C-8.195625 10.360625 -7.39125 9.72125 -6.5625 9.0625 C-3.79111981 6.83187692 -3.02272167 5.3470891 -2 2 C-3.98 2.33 -5.96 2.66 -8 3 C-5.53387212 -0.1151089 -3.89156016 -0.31553191 0 0 Z " fill="#2B2B2B" transform="translate(35,123)"/>
<path d="M0 0 C0.6875 1.75 0.6875 1.75 1 4 C-0.4375 6.25 -0.4375 6.25 -2 8 C-1.34 8.33 -0.68 8.66 0 9 C-1.98 9.99 -1.98 9.99 -4 11 C-4 9.35 -4 7.7 -4 6 C-4.680625 6.99 -4.680625 6.99 -5.375 8 C-5.91125 8.66 -6.4475 9.32 -7 10 C-7.66 10 -8.32 10 -9 10 C-9 9.34 -9 8.68 -9 8 C-9.66 7.67 -10.32 7.34 -11 7 C-9.35 5.02 -7.7 3.04 -6 1 C-5.67 1.99 -5.34 2.98 -5 4 C-3.35 2.68 -1.7 1.36 0 0 Z " fill="#212121" transform="translate(72,132)"/>
<path d="M0 0 C0.99 0 1.98 0 3 0 C3.33 2.31 3.66 4.62 4 7 C2.25 8.5625 2.25 8.5625 0 10 C-2.1875 9.875 -2.1875 9.875 -4 9 C-4.33 8.01 -4.66 7.02 -5 6 C-2.75 2.8125 -2.75 2.8125 0 0 Z " fill="#E8CBA1" transform="translate(40,158)"/>
<path d="M0 0 C0.33 1.98 0.66 3.96 1 6 C-0.0828125 6.804375 -0.0828125 6.804375 -1.1875 7.625 C-3.37797144 9.47473144 -4.93411359 11.04783016 -6.6875 13.25 C-7.450625 14.1575 -8.21375 15.065 -9 16 C-9.66 16 -10.32 16 -11 16 C-9.55746343 12.63408134 -7.66735273 10.48952921 -5 8 C-5.33 7.67 -5.66 7.34 -6 7 C-8.05396726 7.40929986 -8.05396726 7.40929986 -10 8 C-9.67 6.68 -9.34 5.36 -9 4 C-9 4.66 -9 5.32 -9 6 C-8.51789063 5.566875 -8.03578125 5.13375 -7.5390625 4.6875 C-6.90742187 4.130625 -6.27578125 3.57375 -5.625 3 C-4.68527344 2.1646875 -4.68527344 2.1646875 -3.7265625 1.3125 C-2 0 -2 0 0 0 Z " fill="#2B2B2B" transform="translate(103,134)"/>
<path d="M0 0 C0.66 0 1.32 0 2 0 C2 3.33333333 2 6.66666667 2 10 C-2.68965706 11.11658501 -5.53763531 10.80619523 -10 9 C-9.40445313 8.74476563 -8.80890625 8.48953125 -8.1953125 8.2265625 C-5.78516269 6.87996634 -4.57123498 5.53303717 -2.875 3.375 C-1.3671875 1.4609375 -1.3671875 1.4609375 0 0 Z " fill="#ECD3AF" transform="translate(136,157)"/>
<path d="M0 0 C0.66 0 1.32 0 2 0 C2.625 2.875 2.625 2.875 3 6 C2.34 6.66 1.68 7.32 1 8 C1 8.99 1 9.98 1 11 C-0.65 11 -2.3 11 -4 11 C-4 10.34 -4 9.68 -4 9 C-4.99 8.67 -5.98 8.34 -7 8 C-5.88200014 6.66079162 -4.75538103 5.32877444 -3.625 4 C-2.68527344 2.88625 -2.68527344 2.88625 -1.7265625 1.75 C-1.15679687 1.1725 -0.58703125 0.595 0 0 Z " fill="#ECD3AF" transform="translate(75,157)"/>
<path d="M0 0 C2.97 0.495 2.97 0.495 6 1 C5.8125 3.3125 5.8125 3.3125 5 6 C1.68035674 8.60188256 0.30683959 9 -4 9 C-2.80100302 5.9168649 -1.52299523 2.93720508 0 0 Z " fill="#FBF7F1" transform="translate(20,153)"/>
<path d="M0 0 C1.67542976 0.28604898 3.34385343 0.61781233 5 1 C4.67 3.31 4.34 5.62 4 8 C4.66 8 5.32 8 6 8 C6.33 7.34 6.66 6.68 7 6 C6.67 7.32 6.34 8.64 6 10 C4.02 10.33 2.04 10.66 0 11 C0.33 9.35 0.66 7.7 1 6 C-0.98 6.99 -0.98 6.99 -3 8 C-1.125 1.125 -1.125 1.125 0 0 Z " fill="#353535" transform="translate(144,131)"/>
<path d="M0 0 C0.66 0.33 1.32 0.66 2 1 C1.34 2.65 0.68 4.3 0 6 C-0.99 6 -1.98 6 -3 6 C-3.33 7.98 -3.66 9.96 -4 12 C-3.34 12.33 -2.68 12.66 -2 13 C-2.66 13.66 -3.32 14.32 -4 15 C-4.99 15 -5.98 15 -7 15 C-8.22807018 10.57894737 -8.22807018 10.57894737 -7.1875 7.9375 C-6.795625 7.298125 -6.40375 6.65875 -6 6 C-5.71125 5.29875 -5.4225 4.5975 -5.125 3.875 C-3.72822474 1.54704124 -2.54497983 0.87483682 0 0 Z " fill="#E5C494" transform="translate(257,154)"/>
<path d="M0 0 C0.9796875 -0.00257813 1.959375 -0.00515625 2.96875 -0.0078125 C5.5 0.125 5.5 0.125 7.5 1.125 C7.17 2.445 6.84 3.765 6.5 5.125 C5.530625 4.939375 4.56125 4.75375 3.5625 4.5625 C-0.88413206 3.90643953 -5.08084983 4.47365134 -9.5 5.125 C-7.22232762 0.08158258 -5.38890344 -0.01418132 0 0 Z " fill="#E2BE89" transform="translate(19.5,149.875)"/>
<path d="M0 0 C-0.1875 1.875 -0.1875 1.875 -1 4 C-3.5625 5.25 -3.5625 5.25 -6 6 C-5.67 6.66 -5.34 7.32 -5 8 C-3.35 7.67 -1.7 7.34 0 7 C-1.75 9.0625 -1.75 9.0625 -4 11 C-6.25 10.75 -6.25 10.75 -8 10 C-8.8125 7.8125 -8.8125 7.8125 -9 5 C-5.9742869 1.10979744 -5.04048781 0 0 0 Z " fill="#444444" transform="translate(141,132)"/>
<path d="M0 0 C-0.70554068 3.66881155 -2.27735506 6.70450534 -4 10 C-4.99 10 -5.98 10 -7 10 C-6.67 8.68 -6.34 7.36 -6 6 C-7.98 8.64 -9.96 11.28 -12 14 C-12.66 13.67 -13.32 13.34 -14 13 C-12.92027262 11.5805831 -11.83604137 10.1645917 -10.75 8.75 C-9.84507812 7.56664062 -9.84507812 7.56664062 -8.921875 6.359375 C-3.74172185 0 -3.74172185 0 0 0 Z " fill="#252525" transform="translate(223,123)"/>
<path d="M0 0 C0.99 0 1.98 0 3 0 C2.67 1.11375 2.34 2.2275 2 3.375 C0.911357 6.69459717 0.911357 6.69459717 1 9 C0.01 9 -0.98 9 -2 9 C-2 7.68 -2 6.36 -2 5 C-2.45375 5.495 -2.9075 5.99 -3.375 6.5 C-5 8 -5 8 -7 8 C-7.33 7.01 -7.66 6.02 -8 5 C-6.8125 2.8125 -6.8125 2.8125 -5 1 C-3.68 1 -2.36 1 -1 1 C-0.67 0.67 -0.34 0.34 0 0 Z " fill="#E3C08D" transform="translate(102,159)"/>
<path d="M0 0 C-0.33 0.99 -0.66 1.98 -1 3 C-4.5625 4.6875 -4.5625 4.6875 -8 6 C-8.33 5.34 -8.66 4.68 -9 4 C-9.66 4 -10.32 4 -11 4 C-11 2.68 -11 1.36 -11 0 C-6.53464227 -1.86921951 -4.33629181 -2.2956839 0 0 Z " fill="#8B6E39" transform="translate(33,14)"/>
<path d="M0 0 C-0.1875 1.875 -0.1875 1.875 -1 4 C-3.5625 5.25 -3.5625 5.25 -6 6 C-6 6.66 -6 7.32 -6 8 C-6.66 8 -7.32 8 -8 8 C-8.33 8.66 -8.66 9.32 -9 10 C-10.32 9.34 -11.64 8.68 -13 8 C-5.21621622 0 -5.21621622 0 0 0 Z " fill="#343434" transform="translate(50,132)"/>
<path d="M0 0 C-11.88 4.455 -11.88 4.455 -24 9 C-24 8.34 -24 7.68 -24 7 C-24.66 6.67 -25.32 6.34 -26 6 C-22.23354751 4.79828199 -18.46124618 3.61609414 -14.6875 2.4375 C-13.61564453 2.09525391 -12.54378906 1.75300781 -11.43945312 1.40039062 C-10.41142578 1.08134766 -9.38339844 0.76230469 -8.32421875 0.43359375 C-6.9024231 -0.01415405 -6.9024231 -0.01415405 -5.4519043 -0.47094727 C-3 -1 -3 -1 0 0 Z " fill="#F7EFAC" transform="translate(107,50)"/>
<path d="M0 0 C-0.0625 2.1875 -0.0625 2.1875 -1 5 C-4.01328973 7.79639484 -7.10607778 9.70202593 -11 11 C-9.7672897 6.34309441 -5.30909278 0 0 0 Z " fill="#E7E7E7" transform="translate(33,125)"/>
<path d="M0 0 C1.98 0 3.96 0 6 0 C5.49396008 2.16874252 5.00016187 3.99967627 4 6 C4.66 6.66 5.32 7.32 6 8 C5.34 8.66 4.68 9.32 4 10 C3.01 10 2.02 10 1 10 C1.33 8.02 1.66 6.04 2 4 C1.01 4.33 0.02 4.66 -1 5 C-0.67 3.35 -0.34 1.7 0 0 Z " fill="#E6C597" transform="translate(29,158)"/>
<path d="M0 0 C0.66 0 1.32 0 2 0 C2 3.33333333 2 6.66666667 2 10 C0.02 10.33 -1.96 10.66 -4 11 C-4.66 9.68 -5.32 8.36 -6 7 C-4.33333333 7 -2.66666667 7 -1 7 C-0.67 6.01 -0.34 5.02 0 4 C-0.66 3.67 -1.32 3.34 -2 3 C-1.34 2.01 -0.68 1.02 0 0 Z " fill="#E6C79A" transform="translate(246,157)"/>
<path d="M0 0 C0.99 0.33 1.98 0.66 3 1 C3.125 3.375 3.125 3.375 3 6 C2.34 6.66 1.68 7.32 1 8 C1 8.99 1 9.98 1 11 C-0.65 11 -2.3 11 -4 11 C-4.66 9.68 -5.32 8.36 -6 7 C-4.35 7 -2.7 7 -1 7 C-0.67 4.69 -0.34 2.38 0 0 Z " fill="#E5C494" transform="translate(66,157)"/>
<path d="M0 0 C0.33 0 0.66 0 1 0 C1.33 1.98 1.66 3.96 2 6 C3.98 4.68 5.96 3.36 8 2 C7.46104623 5.7726764 6.00464642 7.68212991 3 10 C0.8125 9.9375 0.8125 9.9375 -1 9 C-2.25541557 5.23375329 -1.37061958 3.62811066 0 0 Z " fill="#85652D" transform="translate(89,20)"/>
<path d="M0 0 C0 2.31 0 4.62 0 7 C0.66 7.33 1.32 7.66 2 8 C1.01 8.66 0.02 9.32 -1 10 C-2.65 9.01 -4.3 8.02 -6 7 C-5.37162381 3.35541809 -4.14650034 0 0 0 Z " fill="#EDD6B4" transform="translate(213,157)"/>
<path d="M0 0 C-0.62759865 2.92879371 -1.58622659 5.36095629 -3 8 C-2.01 8.33 -1.02 8.66 0 9 C-1.98 9.99 -1.98 9.99 -4 11 C-5.32 9.68 -6.64 8.36 -8 7 C-6.42166216 3.84332432 -3.72820599 0 0 0 Z " fill="#303030" transform="translate(166,132)"/>
<path d="M0 0 C0.66 0 1.32 0 2 0 C3.125 3.75 3.125 3.75 2 6 C2.66 6.33 3.32 6.66 4 7 C2.35 8.65 0.7 10.3 -1 12 C-1.99 11.67 -2.98 11.34 -4 11 C-3.505 10.236875 -3.01 9.47375 -2.5 8.6875 C-0.75631692 6.07636249 -0.75631692 6.07636249 -1 3 C-0.67 2.01 -0.34 1.02 0 0 Z " fill="#F8F0E4" transform="translate(197,154)"/>
<path d="M0 0 C-1.04874998 2.62187494 -1.64931313 3.79371361 -4.125 5.25 C-4.74375 5.4975 -5.3625 5.745 -6 6 C-6 6.66 -6 7.32 -6 8 C-5.01 8.66 -4.02 9.32 -3 10 C-4.32 10.33 -5.64 10.66 -7 11 C-7.33 10.01 -7.66 9.02 -8 8 C-8.66 7.67 -9.32 7.34 -10 7 C-9.09827532 5.82174642 -8.17798498 4.65768423 -7.25 3.5 C-6.73953125 2.8503125 -6.2290625 2.200625 -5.703125 1.53125 C-4 0 -4 0 0 0 Z " fill="#191919" transform="translate(176,132)"/>
<path d="M0 0 C0.33 0.99 0.66 1.98 1 3 C2.98 2.01 4.96 1.02 7 0 C8.65 1.32 10.3 2.64 12 4 C8.846632 4.70074844 6.27275026 5 3 5 C1.65835921 5.2981424 0.32148827 5.62243192 -1 6 C-1.042721 4.33388095 -1.04063832 2.66617115 -1 1 C-0.67 0.67 -0.34 0.34 0 0 Z " fill="#E5C494" transform="translate(200,163)"/>
<path d="M0 0 C0.33 0 0.66 0 1 0 C1 1.65 1 3.3 1 5 C1.99 5 2.98 5 4 5 C4.33 4.01 4.66 3.02 5 2 C5.99 2 6.98 2 8 2 C7.62492618 4.71928517 7.15781339 5.84218661 5.1875 7.8125 C3 9 3 9 0.75 8.6875 C0.1725 8.460625 -0.405 8.23375 -1 8 C-0.67 5.36 -0.34 2.72 0 0 Z " fill="#957949" transform="translate(80,20)"/>
<path d="M0 0 C0.66 0.33 1.32 0.66 2 1 C1.34 3.31 0.68 5.62 0 8 C-2 8 -4 8 -6 8 C-6 7.34 -6 6.68 -6 6 C-6.99 6.33 -7.98 6.66 -9 7 C-9.33 6.34 -9.66 5.68 -10 5 C-9.0925 4.731875 -8.185 4.46375 -7.25 4.1875 C-4.28528037 3.10423706 -2.3830246 2.01640543 0 0 Z " fill="#EFDBBE" transform="translate(112,160)"/>
<path d="M0 0 C0.66 0 1.32 0 2 0 C2.33 1.98 2.66 3.96 3 6 C1.1875 7.0625 1.1875 7.0625 -1 8 C-1.99 7.67 -2.98 7.34 -4 7 C-2.92598892 4.08482708 -2.22189824 2.22189824 0 0 Z " fill="#616161" transform="translate(191,131)"/>
<path d="M0 0 C0.99 0.33 1.98 0.66 3 1 C3 3.97 3 6.94 3 10 C2.34 10 1.68 10 1 10 C0.67 8.35 0.34 6.7 0 5 C-0.99 5 -1.98 5 -3 5 C-3 4.01 -3 3.02 -3 2 C-2.01 1.34 -1.02 0.68 0 0 Z " fill="#85662E" transform="translate(77,15)"/>
<path d="M0 0 C3.3 0 6.6 0 10 0 C10 0.66 10 1.32 10 2 C6.49223216 3.60355101 3.85645121 4.22036864 0 4 C0 2.68 0 1.36 0 0 Z " fill="#F0ECE2" transform="translate(23,23)"/>
<path d="M0 0 C0.99 0.33 1.98 0.66 3 1 C2.04270084 2.12588014 1.08412105 3.2506715 0.125 4.375 C-0.40867187 5.00148437 -0.94234375 5.62796875 -1.4921875 6.2734375 C-3.68181185 8.78072756 -4.76697851 9.92232617 -8 11 C-6.52670958 5.99081256 -3.72484762 3.48192278 0 0 Z " fill="#121212" transform="translate(26,126)"/>
<path d="M0 0 C1.65 0 3.3 0 5 0 C4.52797514 4.24822374 2.03344482 6.19989709 -1 9 C-0.67 6.03 -0.34 3.06 0 0 Z " fill="#F5F3F0" transform="translate(55,16)"/>
<path d="M0 0 C-1.23789629 3.71368887 -2.85224877 4.77354181 -6 7 C-6.66 7 -7.32 7 -8 7 C-8.33 7.99 -8.66 8.98 -9 10 C-9.66 10 -10.32 10 -11 10 C-9.15139825 5.46252298 -5.31552576 0 0 0 Z " fill="#2F2F2F" transform="translate(101,131)"/>
<path d="M0 0 C0.33 2.31 0.66 4.62 1 7 C0.01 7.33 -0.98 7.66 -2 8 C-2.103125 7.360625 -2.20625 6.72125 -2.3125 6.0625 C-2.539375 5.381875 -2.76625 4.70125 -3 4 C-3.99 3.67 -4.98 3.34 -6 3 C-3.375 0 -3.375 0 0 0 Z " fill="#E3BF8B" transform="translate(93,158)"/>
<path d="M0 0 C0.33 0.66 0.66 1.32 1 2 C-2.44615385 6.8 -2.44615385 6.8 -5.25 7.8125 C-6.11625 7.9053125 -6.11625 7.9053125 -7 8 C-6.875 6.25 -6.875 6.25 -6 4 C-2.9375 1.75 -2.9375 1.75 0 0 Z " fill="#191919" transform="translate(32,130)"/>
<path d="M0 0 C0.66 0.33 1.32 0.66 2 1 C1.54625 1.4125 1.0925 1.825 0.625 2.25 C-1.05950374 4.06408095 -1.99265971 5.75285627 -3 8 C-3.66 7.67 -4.32 7.34 -5 7 C-5 6.34 -5 5.68 -5 5 C-6.98 5.99 -6.98 5.99 -9 7 C-9.33 6.34 -9.66 5.68 -10 5 C-8.27473958 4.28385417 -6.54947917 3.56770833 -4.82421875 2.8515625 C-2.73466068 1.93193308 -2.73466068 1.93193308 0 0 Z " fill="#7B7B7B" transform="translate(235,135)"/>
<path d="M0 0 C0.99 0.33 1.98 0.66 3 1 C2.34 3.64 1.68 6.28 1 9 C1.66 9.33 2.32 9.66 3 10 C1.02 10.99 1.02 10.99 -1 12 C-1.08159574 7.83861737 -0.98248524 4.0527516 0 0 Z " fill="#181818" transform="translate(58,131)"/>
<path d="M0 0 C-1.46666667 4.64444444 -1.46666667 4.64444444 -3.875 6.25 C-5.90387118 6.96607218 -7.89663375 7.54927866 -10 8 C-9.67 6.68 -9.34 5.36 -9 4 C-9 4.66 -9 5.32 -9 6 C-8.51789063 5.566875 -8.03578125 5.13375 -7.5390625 4.6875 C-6.90742187 4.130625 -6.27578125 3.57375 -5.625 3 C-4.68527344 2.1646875 -4.68527344 2.1646875 -3.7265625 1.3125 C-2 0 -2 0 0 0 Z " fill="#121212" transform="translate(103,134)"/>
<path d="M0 0 C1.65 0 3.3 0 5 0 C4.42655063 2.86724686 4.1385485 3.8614515 2 6 C1.01 5.34 0.02 4.68 -1 4 C-0.67 2.68 -0.34 1.36 0 0 Z " fill="#F6F5F2" transform="translate(92,17)"/>
<path d="M0 0 C0.33 0 0.66 0 1 0 C1.25 2.8125 1.25 2.8125 1 6 C-0.8125 7.9375 -0.8125 7.9375 -3 9 C-3.99 8.67 -4.98 8.34 -6 8 C-6 7.34 -6 6.68 -6 6 C-5.195625 5.525625 -4.39125 5.05125 -3.5625 4.5625 C-0.7081924 3.20016328 -0.7081924 3.20016328 0 0 Z " fill="#E1E1E1" transform="translate(141,132)"/>
<path d="M0 0 C0.99 0 1.98 0 3 0 C2.7452486 1.31571603 2.47065859 2.62760376 2.1875 3.9375 C2.03667969 4.66839844 1.88585937 5.39929688 1.73046875 6.15234375 C1.48941406 6.76207031 1.24835938 7.37179688 1 8 C0.01 8.33 -0.98 8.66 -2 9 C-1.125 1.125 -1.125 1.125 0 0 Z " fill="#E4C290" transform="translate(147,159)"/>
<path d="M0 0 C0.66 0.33 1.32 0.66 2 1 C1.34 2.65 0.68 4.3 0 6 C-1.65 5.67 -3.3 5.34 -5 5 C-4 2 -4 2 -2.0625 0.75 C-1.381875 0.5025 -0.70125 0.255 0 0 Z " fill="#E4C18F" transform="translate(183,154)"/>
<path d="M0 0 C-0.33 1.65 -0.66 3.3 -1 5 C-1.66 4.67 -2.32 4.34 -3 4 C-3 4.99 -3 5.98 -3 7 C-3.33 7.99 -3.66 8.98 -4 10 C-4.66 10 -5.32 10 -6 10 C-5.38909774 3.52443609 -5.38909774 3.52443609 -3.5625 1.0625 C-2 0 -2 0 0 0 Z " fill="#E8CA9F" transform="translate(126,151)"/>
<path d="M0 0 C0.66 0 1.32 0 2 0 C2 1.65 2 3.3 2 5 C0.02 5.99 0.02 5.99 -2 7 C-2.33 6.01 -2.66 5.02 -3 4 C-1.6875 1.8125 -1.6875 1.8125 0 0 Z " fill="#E6C698" transform="translate(97,160)"/>
<path d="M0 0 C-0.33 1.32 -0.66 2.64 -1 4 C-2.65 4.33 -4.3 4.66 -6 5 C-6 3.68 -6 2.36 -6 1 C-4 0 -4 0 0 0 Z " fill="#5A5959" transform="translate(50,132)"/>
<path d="M0 0 C0.99 0.33 1.98 0.66 3 1 C3 1.99 3 2.98 3 4 C2.34 4 1.68 4 1 4 C1 7.96 1 11.92 1 16 C0.67 16 0.34 16 0 16 C0 10.72 0 5.44 0 0 Z " fill="#A48D63" transform="translate(39,14)"/>
<path d="M0 0 C0.99 0 1.98 0 3 0 C3.75 1.75 3.75 1.75 4 4 C2.0625 6.25 2.0625 6.25 0 8 C0 5.36 0 2.72 0 0 Z " fill="#F3E3CD" transform="translate(46,167)"/>
<path d="M0 0 C5.5952381 0.5952381 5.5952381 0.5952381 8 3 C7 4 7 4 4.4375 4.0625 C3.2309375 4.0315625 3.2309375 4.0315625 2 4 C2 3.34 2 2.68 2 2 C1.01 1.67 0.02 1.34 -1 1 C-0.67 0.67 -0.34 0.34 0 0 Z " fill="#E4C393" transform="translate(69,164)"/>
<path d="M0 0 C0.33 1.32 0.66 2.64 1 4 C-1.4375 6.75 -1.4375 6.75 -4 9 C-4.66 8.67 -5.32 8.34 -6 8 C-4.02 5.36 -2.04 2.72 0 0 Z " fill="#F0DEC3" transform="translate(231,152)"/>
<path d="M0 0 C0.66 0.99 1.32 1.98 2 3 C0.8803014 4.00593243 -0.2459412 5.0045849 -1.375 6 C-2.00148438 6.556875 -2.62796875 7.11375 -3.2734375 7.6875 C-5 9 -5 9 -7 9 C-5.44499019 5.18315774 -2.96404505 2.80804268 0 0 Z " fill="#E5E5E5" transform="translate(101,131)"/>
<path d="M0 0 C-0.33 1.98 -0.66 3.96 -1 6 C-1.66 6 -2.32 6 -3 6 C-3.33 4.35 -3.66 2.7 -4 1 C-5.32 0.67 -6.64 0.34 -8 0 C-2.25 -1.125 -2.25 -1.125 0 0 Z " fill="#ECE3B6" transform="translate(31,29)"/>
<path d="M0 0 C0.33 0 0.66 0 1 0 C1 1.98 1 3.96 1 6 C1.66 6 2.32 6 3 6 C2.67 6.99 2.34 7.98 2 9 C1.01 9 0.02 9 -1 9 C-1.66 7.02 -2.32 5.04 -3 3 C-2.34 3 -1.68 3 -1 3 C-0.67 2.01 -0.34 1.02 0 0 Z " fill="#947948" transform="translate(100,20)"/>
<path d="M0 0 C0.99 0.33 1.98 0.66 3 1 C0.11912454 3.40072955 -2.56404834 5.47291037 -6 7 C-4.19587357 3.73539027 -3.16605307 2.11070205 0 0 Z " fill="#E3C18D" transform="translate(111,158)"/>
<path d="M0 0 C0.33 0.99 0.66 1.98 1 3 C2.32 2.34 3.64 1.68 5 1 C4.67 1.99 4.34 2.98 4 4 C1.4375 5.1875 1.4375 5.1875 -1 6 C-1.33 5.01 -1.66 4.02 -2 3 C-1.34 2.01 -0.68 1.02 0 0 Z " fill="#E5C393" transform="translate(178,163)"/>
<path d="M0 0 C0.99 0.33 1.98 0.66 3 1 C-0.625 6.875 -0.625 6.875 -4 8 C-2.66666667 5.33333333 -1.33333333 2.66666667 0 0 Z " fill="#E7C99C" transform="translate(129,155)"/>
<path d="M0 0 C0.66 0 1.32 0 2 0 C2 2.31 2 4.62 2 7 C1.34 7 0.68 7 0 7 C-0.33 6.34 -0.66 5.68 -1 5 C-1.66 4.67 -2.32 4.34 -3 4 C-1.625 2 -1.625 2 0 0 Z " fill="#E4C18F" transform="translate(136,157)"/>
<path d="M0 0 C-0.66 1.65 -1.32 3.3 -2 5 C-2.66 4.67 -3.32 4.34 -4 4 C-4.99 3.67 -5.98 3.34 -7 3 C-4.49955934 -0.00052879 -4.2621484 0 0 0 Z " fill="#E7CA9E" transform="translate(61,158)"/>
<path d="M0 0 C0.33 0 0.66 0 1 0 C1.33 1.65 1.66 3.3 2 5 C2.66 4.34 3.32 3.68 4 3 C4.99 4.485 4.99 4.485 6 6 C5.34 6.66 4.68 7.32 4 8 C2.68 8 1.36 8 0 8 C0 5.36 0 2.72 0 0 Z " fill="#A69067" transform="translate(70,16)"/>
<path d="M0 0 C0 0.66 0 1.32 0 2 C-4.455 3.485 -4.455 3.485 -9 5 C-4.5 0 -4.5 0 0 0 Z " fill="#8D6F3B" transform="translate(51,15)"/>
<path d="M0 0 C0.33 0.66 0.66 1.32 1 2 C2.65 1.67 4.3 1.34 6 1 C6 1.66 6 2.32 6 3 C3 5 3 5 0.8125 4.625 C0.214375 4.41875 -0.38375 4.2125 -1 4 C-0.67 2.68 -0.34 1.36 0 0 Z " fill="#E6C79A" transform="translate(54,164)"/>
<path d="M0 0 C1.98 0.99 3.96 1.98 6 3 C5.67 3.66 5.34 4.32 5 5 C3.35 4.67 1.7 4.34 0 4 C-0.33 3.01 -0.66 2.02 -1 1 C-0.67 0.67 -0.34 0.34 0 0 Z " fill="#E2BE89" transform="translate(241,163)"/>
<path d="M0 0 C0.33 1.32 0.66 2.64 1 4 C-1.31 4.33 -3.62 4.66 -6 5 C-5.67 3.68 -5.34 2.36 -5 1 C-4.67 1.66 -4.34 2.32 -4 3 C-2.68 2.67 -1.36 2.34 0 2 C0 1.34 0 0.68 0 0 Z " fill="#2E2E2E" transform="translate(150,137)"/>
<path d="M0 0 C1.1446875 0.2475 1.1446875 0.2475 2.3125 0.5 C5.03596236 1.09145396 5.03596236 1.09145396 8 1 C6.25 2.5625 6.25 2.5625 4 4 C1.75 3.6875 1.75 3.6875 0 3 C0 2.01 0 1.02 0 0 Z " fill="#171717" transform="translate(133,139)"/>
<path d="M0 0 C0.28875 0.61875 0.5775 1.2375 0.875 1.875 C1.93720042 4.13325765 1.93720042 4.13325765 4 6 C2.0625 6.5625 2.0625 6.5625 0 7 C-1 6 -1 6 -1.125 3.5 C-1 1 -1 1 0 0 Z " fill="#111111" transform="translate(35,136)"/>
<path d="M0 0 C0.99 0 1.98 0 3 0 C2.67 1.32 2.34 2.64 2 4 C0.35 4.33 -1.3 4.66 -3 5 C-1.6875 2.5 -1.6875 2.5 0 0 Z " fill="#5D5D5D" transform="translate(182,132)"/>
<path d="M0 0 C0.66 0 1.32 0 2 0 C1.40072174 3.35595828 0.15377564 5.37801226 -2 8 C-3 5 -3 5 -1.6875 2.3125 C-1.130625 1.549375 -0.57375 0.78625 0 0 Z " fill="#292929" transform="translate(242,125)"/>
<path d="M0 0 C0 3 0 3 -1.53125 4.60546875 C-2.1809375 5.12753906 -2.830625 5.64960937 -3.5 6.1875 C-4.1496875 6.71730469 -4.799375 7.24710938 -5.46875 7.79296875 C-5.9740625 8.19128906 -6.479375 8.58960938 -7 9 C-7 6 -7 6 -5.46875 4.39453125 C-4.49421875 3.61142578 -4.49421875 3.61142578 -3.5 2.8125 C-2.8503125 2.28269531 -2.200625 1.75289062 -1.53125 1.20703125 C-1.0259375 0.80871094 -0.520625 0.41039062 0 0 Z " fill="#F9F3C0" transform="translate(70,33)"/>
<path d="M0 0 C1.98 0.99 3.96 1.98 6 3 C5.67 3.66 5.34 4.32 5 5 C3.35 4.67 1.7 4.34 0 4 C0 2.68 0 1.36 0 0 Z " fill="#E2BD88" transform="translate(206,163)"/>
<path d="M0 0 C0.185625 0.9590625 0.185625 0.9590625 0.375 1.9375 C0.684375 2.9584375 0.684375 2.9584375 1 4 C1.66 4.33 2.32 4.66 3 5 C1.02 5.99 1.02 5.99 -1 7 C-1.625 4.625 -1.625 4.625 -2 2 C-1.34 1.34 -0.68 0.68 0 0 Z " fill="#E3C08D" transform="translate(171,162)"/>
<path d="M0 0 C0 3 0 3 -1.375 4.6875 C-3 6 -3 6 -5 6 C-4.75 4.125 -4.75 4.125 -4 2 C-1.9375 0.75 -1.9375 0.75 0 0 Z " fill="#F8EEE1" transform="translate(171,160)"/>
<path d="M0 0 C0.66 0 1.32 0 2 0 C2.33 0.99 2.66 1.98 3 3 C3.99 3.66 4.98 4.32 6 5 C4.68 5.33 3.36 5.66 2 6 C1.67 5.01 1.34 4.02 1 3 C0.34 2.67 -0.32 2.34 -1 2 C-0.67 1.34 -0.34 0.68 0 0 Z " fill="#111111" transform="translate(167,137)"/>
<path d="M0 0 C1.65 0 3.3 0 5 0 C5.33 0.66 5.66 1.32 6 2 C4.02 2.66 2.04 3.32 0 4 C0 2.68 0 1.36 0 0 Z " fill="#E8E3DA" transform="translate(22,14)"/>
</svg>
